<svg xmlns="http://www.w3.org/2000/svg" viewBox="0 0 400 400" width="400" height="400">
  <defs>
    <linearGradient id="purpleGradient" x1="0%" y1="0%" x2="100%" y2="100%">
      <stop offset="0%" stop-color="#6a11cb"/>
      <stop offset="100%" stop-color="#2575fc"/>
    </linearGradient>
    <linearGradient id="greenGradient" x1="100%" y1="0%" x2="0%" y2="100%">
      <stop offset="0%" stop-color="#38ef7d"/>
      <stop offset="100%" stop-color="#11998e"/>
    </linearGradient>
    <filter id="glow" x="-30%" y="-30%" width="160%" height="160%">
      <feGaussianBlur stdDeviation="3" result="blur"/>
      <feComposite in="SourceGraphic" in2="blur" operator="over"/>
    </filter>
  </defs>
  
  <!-- 透明背景 - 无背景矩形 -->
  
  <!-- 中心对称设计 -->
  <g transform="translate(200,200)">
    <!-- 紫色元素 - 加粗线条 -->
    <path d="M0,-120 L0,-80 M0,80 L0,120" 
          stroke="url(#purpleGradient)" stroke-width="16" stroke-linecap="round" filter="url(#glow)"/>
    <path d="M-120,0 L-80,0 M80,0 L120,0" 
          stroke="url(#purpleGradient)" stroke-width="16" stroke-linecap="round" filter="url(#glow)"/>
    
    <!-- 绿色元素 - 对角线 -->
    <path d="M-85,-85 L-55,-55 M55,55 L85,85" 
          stroke="url(#greenGradient)" stroke-width="16" stroke-linecap="round" filter="url(#glow)"/>
    <path d="M85,-85 L55,-55 M-55,55 L-85,85" 
          stroke="url(#greenGradient)" stroke-width="16" stroke-linecap="round" filter="url(#glow)"/>
    
    <!-- 中心暗色元素 -->
    <circle cx="0" cy="0" r="48" fill="#2c3e50" opacity="0.9"/>
    <circle cx="0" cy="0" r="40" fill="#34495e"/>
    
    <!-- 装饰性光点 -->
    <circle cx="0" cy="-100" r="8" fill="white" opacity="0.8" filter="url(#glow)"/>
    <circle cx="0" cy="100" r="8" fill="white" opacity="0.8" filter="url(#glow)"/>
    <circle cx="-100" cy="0" r="8" fill="white" opacity="0.8" filter="url(#glow)"/>
    <circle cx="100" cy="0" r="8" fill="white" opacity="0.8" filter="url(#glow)"/>
  </g>
</svg>